<mxfile host="app.diagrams.net" modified="2024-02-10T16:33:20.712Z" agent="Mozilla/5.0 (Windows NT 6.1; Win64; x64) AppleWebKit/537.36 (KHTML, like Gecko) Chrome/109.0.0.0 Safari/537.36 OPR/95.0.0.0" etag="_vc8NxpMovu5-GrdFbjl" version="23.1.2" type="device">
  <diagram name="Страница — 1" id="DCjPbNZcJy4rBKEYP6em">
    <mxGraphModel dx="3000" dy="958" grid="1" gridSize="10" guides="1" tooltips="1" connect="1" arrows="1" fold="1" page="0" pageScale="1" pageWidth="827" pageHeight="1169" math="0" shadow="0">
      <root>
        <mxCell id="0" />
        <mxCell id="1" parent="0" />
        <mxCell id="6bSXe6BSbkcos6ZR_QDM-1" value="Север БД" style="verticalAlign=top;align=center;spacingTop=8;spacingLeft=2;spacingRight=12;shape=cube;size=10;direction=south;fontStyle=4;html=1;whiteSpace=wrap;" parent="1" vertex="1">
          <mxGeometry x="537" y="120" width="273" height="310" as="geometry" />
        </mxCell>
        <mxCell id="6bSXe6BSbkcos6ZR_QDM-2" value="FireBase" style="html=1;dropTarget=0;whiteSpace=wrap;" parent="1" vertex="1">
          <mxGeometry x="570" y="160" width="180" height="90" as="geometry" />
        </mxCell>
        <mxCell id="6bSXe6BSbkcos6ZR_QDM-3" value="" style="shape=module;jettyWidth=8;jettyHeight=4;" parent="6bSXe6BSbkcos6ZR_QDM-2" vertex="1">
          <mxGeometry x="1" width="20" height="20" relative="1" as="geometry">
            <mxPoint x="-27" y="7" as="offset" />
          </mxGeometry>
        </mxCell>
        <mxCell id="6bSXe6BSbkcos6ZR_QDM-7" value="Сервер приложений" style="verticalAlign=top;align=center;spacingTop=8;spacingLeft=2;spacingRight=12;shape=cube;size=10;direction=south;fontStyle=4;html=1;whiteSpace=wrap;" parent="1" vertex="1">
          <mxGeometry x="180" y="410" width="260" height="460" as="geometry" />
        </mxCell>
        <mxCell id="6bSXe6BSbkcos6ZR_QDM-8" value="Мобильное приложение" style="verticalAlign=top;align=center;spacingTop=8;spacingLeft=2;spacingRight=12;shape=cube;size=10;direction=south;fontStyle=4;html=1;whiteSpace=wrap;" parent="1" vertex="1">
          <mxGeometry x="-170" y="120" width="270" height="270" as="geometry" />
        </mxCell>
        <mxCell id="6bSXe6BSbkcos6ZR_QDM-9" value="Внешние серверы" style="verticalAlign=top;align=center;spacingTop=8;spacingLeft=2;spacingRight=12;shape=cube;size=10;direction=south;fontStyle=4;html=1;whiteSpace=wrap;" parent="1" vertex="1">
          <mxGeometry x="-190" y="540" width="265" height="480" as="geometry" />
        </mxCell>
        <mxCell id="6bSXe6BSbkcos6ZR_QDM-10" value="Интерфейс" style="html=1;dropTarget=0;whiteSpace=wrap;" parent="1" vertex="1">
          <mxGeometry x="-130" y="190" width="180" height="90" as="geometry" />
        </mxCell>
        <mxCell id="6bSXe6BSbkcos6ZR_QDM-11" value="" style="shape=module;jettyWidth=8;jettyHeight=4;" parent="6bSXe6BSbkcos6ZR_QDM-10" vertex="1">
          <mxGeometry x="1" width="20" height="20" relative="1" as="geometry">
            <mxPoint x="-27" y="7" as="offset" />
          </mxGeometry>
        </mxCell>
        <mxCell id="6bSXe6BSbkcos6ZR_QDM-13" value="" style="endArrow=none;html=1;rounded=0;exitX=0;exitY=0;exitDx=115;exitDy=0;exitPerimeter=0;entryX=0.428;entryY=1.004;entryDx=0;entryDy=0;entryPerimeter=0;" parent="1" source="6bSXe6BSbkcos6ZR_QDM-7" target="6bSXe6BSbkcos6ZR_QDM-1" edge="1">
          <mxGeometry width="50" height="50" relative="1" as="geometry">
            <mxPoint x="10" y="400" as="sourcePoint" />
            <mxPoint x="60" y="350" as="targetPoint" />
            <Array as="points" />
          </mxGeometry>
        </mxCell>
        <mxCell id="6bSXe6BSbkcos6ZR_QDM-14" value="SQL" style="text;html=1;strokeColor=none;fillColor=none;align=center;verticalAlign=middle;whiteSpace=wrap;rounded=0;" parent="1" vertex="1">
          <mxGeometry x="430" y="360" width="60" height="30" as="geometry" />
        </mxCell>
        <mxCell id="6bSXe6BSbkcos6ZR_QDM-16" value="Серверное ПО" style="html=1;dropTarget=0;whiteSpace=wrap;" parent="1" vertex="1">
          <mxGeometry x="220" y="470" width="180" height="90" as="geometry" />
        </mxCell>
        <mxCell id="6bSXe6BSbkcos6ZR_QDM-17" value="" style="shape=module;jettyWidth=8;jettyHeight=4;" parent="6bSXe6BSbkcos6ZR_QDM-16" vertex="1">
          <mxGeometry x="1" width="20" height="20" relative="1" as="geometry">
            <mxPoint x="-27" y="7" as="offset" />
          </mxGeometry>
        </mxCell>
        <mxCell id="6bSXe6BSbkcos6ZR_QDM-19" value="Java" style="html=1;dropTarget=0;whiteSpace=wrap;" parent="1" vertex="1">
          <mxGeometry x="220" y="600" width="180" height="90" as="geometry" />
        </mxCell>
        <mxCell id="6bSXe6BSbkcos6ZR_QDM-20" value="" style="shape=module;jettyWidth=8;jettyHeight=4;" parent="6bSXe6BSbkcos6ZR_QDM-19" vertex="1">
          <mxGeometry x="1" width="20" height="20" relative="1" as="geometry">
            <mxPoint x="-27" y="7" as="offset" />
          </mxGeometry>
        </mxCell>
        <mxCell id="6bSXe6BSbkcos6ZR_QDM-24" value="CRM-система" style="html=1;dropTarget=0;whiteSpace=wrap;" parent="1" vertex="1">
          <mxGeometry x="-150" y="610" width="180" height="90" as="geometry" />
        </mxCell>
        <mxCell id="6bSXe6BSbkcos6ZR_QDM-25" value="" style="shape=module;jettyWidth=8;jettyHeight=4;" parent="6bSXe6BSbkcos6ZR_QDM-24" vertex="1">
          <mxGeometry x="1" width="20" height="20" relative="1" as="geometry">
            <mxPoint x="-27" y="7" as="offset" />
          </mxGeometry>
        </mxCell>
        <mxCell id="6bSXe6BSbkcos6ZR_QDM-26" value="Анализ и формирование отчета&amp;nbsp;" style="html=1;dropTarget=0;whiteSpace=wrap;" parent="1" vertex="1">
          <mxGeometry x="-160" y="740" width="180" height="90" as="geometry" />
        </mxCell>
        <mxCell id="6bSXe6BSbkcos6ZR_QDM-27" value="" style="shape=module;jettyWidth=8;jettyHeight=4;" parent="6bSXe6BSbkcos6ZR_QDM-26" vertex="1">
          <mxGeometry x="1" width="20" height="20" relative="1" as="geometry">
            <mxPoint x="-27" y="7" as="offset" />
          </mxGeometry>
        </mxCell>
        <mxCell id="6bSXe6BSbkcos6ZR_QDM-28" value="" style="endArrow=none;html=1;rounded=0;exitX=0.523;exitY=0;exitDx=0;exitDy=0;exitPerimeter=0;entryX=0;entryY=0;entryDx=185;entryDy=260;entryPerimeter=0;" parent="1" source="6bSXe6BSbkcos6ZR_QDM-9" target="6bSXe6BSbkcos6ZR_QDM-7" edge="1">
          <mxGeometry width="50" height="50" relative="1" as="geometry">
            <mxPoint x="100" y="710" as="sourcePoint" />
            <mxPoint x="170" y="640" as="targetPoint" />
            <Array as="points" />
          </mxGeometry>
        </mxCell>
        <mxCell id="6bSXe6BSbkcos6ZR_QDM-29" value="" style="endArrow=none;html=1;rounded=0;exitX=0.297;exitY=0.999;exitDx=0;exitDy=0;exitPerimeter=0;entryX=0;entryY=0;entryDx=175;entryDy=0;entryPerimeter=0;" parent="1" source="6bSXe6BSbkcos6ZR_QDM-7" target="6bSXe6BSbkcos6ZR_QDM-8" edge="1">
          <mxGeometry width="50" height="50" relative="1" as="geometry">
            <mxPoint x="140" y="400" as="sourcePoint" />
            <mxPoint x="220" y="145" as="targetPoint" />
            <Array as="points" />
          </mxGeometry>
        </mxCell>
        <mxCell id="atOyLSz9K0zi_MBjfNwq-8" value="Информация о запасах медикаментов" style="shape=note;size=20;whiteSpace=wrap;html=1;" parent="1" vertex="1">
          <mxGeometry x="520" y="490" width="100" height="100" as="geometry" />
        </mxCell>
        <mxCell id="atOyLSz9K0zi_MBjfNwq-9" value="Информация о поставщиках" style="shape=note;size=20;whiteSpace=wrap;html=1;" parent="1" vertex="1">
          <mxGeometry x="640" y="490" width="100" height="100" as="geometry" />
        </mxCell>
        <mxCell id="atOyLSz9K0zi_MBjfNwq-10" value="Информация о клиентах и их заказах" style="shape=note;size=20;whiteSpace=wrap;html=1;" parent="1" vertex="1">
          <mxGeometry x="770" y="490" width="100" height="100" as="geometry" />
        </mxCell>
        <mxCell id="atOyLSz9K0zi_MBjfNwq-11" value="" style="endArrow=none;dashed=1;html=1;rounded=0;exitX=0.5;exitY=0;exitDx=0;exitDy=0;exitPerimeter=0;" parent="1" source="atOyLSz9K0zi_MBjfNwq-8" edge="1">
          <mxGeometry width="50" height="50" relative="1" as="geometry">
            <mxPoint x="630" y="440" as="sourcePoint" />
            <mxPoint x="620" y="370" as="targetPoint" />
          </mxGeometry>
        </mxCell>
        <mxCell id="atOyLSz9K0zi_MBjfNwq-12" value="" style="endArrow=none;dashed=1;html=1;rounded=0;exitX=0;exitY=0;exitDx=40;exitDy=0;exitPerimeter=0;entryX=0.5;entryY=1;entryDx=0;entryDy=0;" parent="1" source="atOyLSz9K0zi_MBjfNwq-9" target="LqRWvsVkJMIg8Jv1mjb4-21" edge="1">
          <mxGeometry width="50" height="50" relative="1" as="geometry">
            <mxPoint x="730" y="440" as="sourcePoint" />
            <mxPoint x="698.2608695652175" y="390" as="targetPoint" />
          </mxGeometry>
        </mxCell>
        <mxCell id="atOyLSz9K0zi_MBjfNwq-13" value="" style="endArrow=none;dashed=1;html=1;rounded=0;exitX=0;exitY=0;exitDx=40;exitDy=0;exitPerimeter=0;" parent="1" source="atOyLSz9K0zi_MBjfNwq-10" target="LqRWvsVkJMIg8Jv1mjb4-21" edge="1">
          <mxGeometry width="50" height="50" relative="1" as="geometry">
            <mxPoint x="900" y="460" as="sourcePoint" />
            <mxPoint x="755" y="389.04255319148933" as="targetPoint" />
          </mxGeometry>
        </mxCell>
        <mxCell id="atOyLSz9K0zi_MBjfNwq-21" value="AppMaster&lt;span style=&quot;font-size:14.0pt;line-height:115%;font-family:&amp;quot;Times New Roman&amp;quot;,&amp;quot;serif&amp;quot;;&lt;br/&gt;mso-fareast-font-family:Calibri;mso-fareast-theme-font:minor-latin;mso-ansi-language:&lt;br/&gt;RU;mso-fareast-language:EN-US;mso-bidi-language:AR-SA&quot; lang=&quot;EN-US&quot;&gt; &lt;/span&gt;&lt;span style=&quot;font-size:14.0pt;line-height:115%;font-family:&amp;quot;Times New Roman&amp;quot;,&amp;quot;serif&amp;quot;;&lt;br/&gt;mso-fareast-font-family:Calibri;mso-fareast-theme-font:minor-latin;mso-ansi-language:&lt;br/&gt;EN-US;mso-fareast-language:EN-US;mso-bidi-language:AR-SA&quot; lang=&quot;EN-US&quot;&gt;CRM&lt;/span&gt;" style="shape=note;size=20;whiteSpace=wrap;html=1;" parent="1" vertex="1">
          <mxGeometry x="-420" y="595" width="100" height="100" as="geometry" />
        </mxCell>
        <mxCell id="atOyLSz9K0zi_MBjfNwq-23" value="" style="endArrow=none;dashed=1;html=1;rounded=0;entryX=-0.005;entryY=0.614;entryDx=0;entryDy=0;entryPerimeter=0;exitX=0;exitY=0;exitDx=100;exitDy=60;exitPerimeter=0;" parent="1" source="atOyLSz9K0zi_MBjfNwq-28" target="6bSXe6BSbkcos6ZR_QDM-26" edge="1">
          <mxGeometry width="50" height="50" relative="1" as="geometry">
            <mxPoint x="-290" y="860" as="sourcePoint" />
            <mxPoint x="-240" y="810" as="targetPoint" />
          </mxGeometry>
        </mxCell>
        <mxCell id="atOyLSz9K0zi_MBjfNwq-24" value="" style="endArrow=none;dashed=1;html=1;rounded=0;exitX=0;exitY=0;exitDx=100;exitDy=60;exitPerimeter=0;entryX=0;entryY=0.5;entryDx=0;entryDy=0;" parent="1" source="atOyLSz9K0zi_MBjfNwq-21" target="6bSXe6BSbkcos6ZR_QDM-24" edge="1">
          <mxGeometry width="50" height="50" relative="1" as="geometry">
            <mxPoint x="60" y="830" as="sourcePoint" />
            <mxPoint x="110" y="780" as="targetPoint" />
          </mxGeometry>
        </mxCell>
        <mxCell id="atOyLSz9K0zi_MBjfNwq-28" value="Firebase&lt;span style=&quot;font-size:14.0pt;line-height:115%;font-family:&amp;quot;Times New Roman&amp;quot;,&amp;quot;serif&amp;quot;;&lt;br/&gt;mso-fareast-font-family:Calibri;mso-fareast-theme-font:minor-latin;mso-ansi-language:&lt;br/&gt;RU;mso-fareast-language:EN-US;mso-bidi-language:AR-SA&quot; lang=&quot;EN-US&quot;&gt; &lt;/span&gt;&lt;span style=&quot;font-size:14.0pt;line-height:115%;font-family:&amp;quot;Times New Roman&amp;quot;,&amp;quot;serif&amp;quot;;&lt;br/&gt;mso-fareast-font-family:Calibri;mso-fareast-theme-font:minor-latin;mso-ansi-language:&lt;br/&gt;EN-US;mso-fareast-language:EN-US;mso-bidi-language:AR-SA&quot; lang=&quot;EN-US&quot;&gt;Analytics&lt;/span&gt;" style="shape=note;size=20;whiteSpace=wrap;html=1;" parent="1" vertex="1">
          <mxGeometry x="-435" y="735" width="100" height="100" as="geometry" />
        </mxCell>
        <mxCell id="LqRWvsVkJMIg8Jv1mjb4-1" value="Мобильное устройства" style="verticalAlign=top;align=center;spacingTop=8;spacingLeft=2;spacingRight=12;shape=cube;size=10;direction=south;fontStyle=4;html=1;whiteSpace=wrap;" parent="1" vertex="1">
          <mxGeometry x="-660" y="100" width="270" height="270" as="geometry" />
        </mxCell>
        <mxCell id="LqRWvsVkJMIg8Jv1mjb4-2" value="Android" style="html=1;dropTarget=0;whiteSpace=wrap;" parent="1" vertex="1">
          <mxGeometry x="-615" y="190" width="180" height="90" as="geometry" />
        </mxCell>
        <mxCell id="LqRWvsVkJMIg8Jv1mjb4-3" value="" style="shape=module;jettyWidth=8;jettyHeight=4;" parent="LqRWvsVkJMIg8Jv1mjb4-2" vertex="1">
          <mxGeometry x="1" width="20" height="20" relative="1" as="geometry">
            <mxPoint x="-27" y="7" as="offset" />
          </mxGeometry>
        </mxCell>
        <mxCell id="LqRWvsVkJMIg8Jv1mjb4-5" value="" style="endArrow=none;html=1;rounded=0;exitX=0;exitY=0;exitDx=130;exitDy=0;exitPerimeter=0;" parent="1" source="LqRWvsVkJMIg8Jv1mjb4-1" target="6bSXe6BSbkcos6ZR_QDM-8" edge="1">
          <mxGeometry width="50" height="50" relative="1" as="geometry">
            <mxPoint x="40" y="350" as="sourcePoint" />
            <mxPoint x="90" y="300" as="targetPoint" />
          </mxGeometry>
        </mxCell>
        <mxCell id="LqRWvsVkJMIg8Jv1mjb4-6" value="Управление запасами медикаментов" style="shape=note;size=20;whiteSpace=wrap;html=1;" parent="1" vertex="1">
          <mxGeometry x="160" y="50" width="100" height="100" as="geometry" />
        </mxCell>
        <mxCell id="LqRWvsVkJMIg8Jv1mjb4-7" value="Раздел обучающие материалы и инструкции использования ПО" style="shape=note;size=20;whiteSpace=wrap;html=1;" parent="1" vertex="1">
          <mxGeometry x="160" y="170" width="100" height="100" as="geometry" />
        </mxCell>
        <mxCell id="LqRWvsVkJMIg8Jv1mjb4-8" value="Мониторинг сроков годности" style="shape=note;size=20;whiteSpace=wrap;html=1;" parent="1" vertex="1">
          <mxGeometry x="160" y="280" width="100" height="100" as="geometry" />
        </mxCell>
        <mxCell id="LqRWvsVkJMIg8Jv1mjb4-9" value="Формирование запросов поставщику" style="shape=note;size=20;whiteSpace=wrap;html=1;" parent="1" vertex="1">
          <mxGeometry x="20" width="100" height="100" as="geometry" />
        </mxCell>
        <mxCell id="LqRWvsVkJMIg8Jv1mjb4-10" value="Анализ продаж и формирование отчета" style="shape=note;size=20;whiteSpace=wrap;html=1;" parent="1" vertex="1">
          <mxGeometry x="-130" width="100" height="100" as="geometry" />
        </mxCell>
        <mxCell id="LqRWvsVkJMIg8Jv1mjb4-11" value="Ведение клиентской базы и истории покупок" style="shape=note;size=20;whiteSpace=wrap;html=1;" parent="1" vertex="1">
          <mxGeometry x="-250" width="100" height="100" as="geometry" />
        </mxCell>
        <mxCell id="LqRWvsVkJMIg8Jv1mjb4-12" value="" style="endArrow=none;html=1;rounded=0;exitX=0.293;exitY=1.003;exitDx=0;exitDy=0;exitPerimeter=0;entryX=0;entryY=0;entryDx=10;entryDy=270;entryPerimeter=0;" parent="1" source="LqRWvsVkJMIg8Jv1mjb4-11" target="6bSXe6BSbkcos6ZR_QDM-8" edge="1">
          <mxGeometry width="50" height="50" relative="1" as="geometry">
            <mxPoint x="200" y="350" as="sourcePoint" />
            <mxPoint x="250" y="300" as="targetPoint" />
          </mxGeometry>
        </mxCell>
        <mxCell id="LqRWvsVkJMIg8Jv1mjb4-13" value="" style="endArrow=none;html=1;rounded=0;exitX=0.5;exitY=1;exitDx=0;exitDy=0;exitPerimeter=0;entryX=0.005;entryY=0.616;entryDx=0;entryDy=0;entryPerimeter=0;" parent="1" source="LqRWvsVkJMIg8Jv1mjb4-10" target="6bSXe6BSbkcos6ZR_QDM-8" edge="1">
          <mxGeometry width="50" height="50" relative="1" as="geometry">
            <mxPoint x="-50" y="110" as="sourcePoint" />
            <mxPoint x="1" y="140" as="targetPoint" />
          </mxGeometry>
        </mxCell>
        <mxCell id="LqRWvsVkJMIg8Jv1mjb4-14" value="" style="endArrow=none;html=1;rounded=0;exitX=0.5;exitY=1;exitDx=0;exitDy=0;exitPerimeter=0;entryX=0.009;entryY=0.171;entryDx=0;entryDy=0;entryPerimeter=0;" parent="1" source="LqRWvsVkJMIg8Jv1mjb4-9" target="6bSXe6BSbkcos6ZR_QDM-8" edge="1">
          <mxGeometry width="50" height="50" relative="1" as="geometry">
            <mxPoint x="110" y="110" as="sourcePoint" />
            <mxPoint x="161" y="140" as="targetPoint" />
          </mxGeometry>
        </mxCell>
        <mxCell id="LqRWvsVkJMIg8Jv1mjb4-15" value="" style="endArrow=none;html=1;rounded=0;entryX=0;entryY=0.5;entryDx=0;entryDy=0;entryPerimeter=0;" parent="1" source="6bSXe6BSbkcos6ZR_QDM-8" target="LqRWvsVkJMIg8Jv1mjb4-6" edge="1">
          <mxGeometry width="50" height="50" relative="1" as="geometry">
            <mxPoint x="130" y="140" as="sourcePoint" />
            <mxPoint x="181" y="170" as="targetPoint" />
          </mxGeometry>
        </mxCell>
        <mxCell id="LqRWvsVkJMIg8Jv1mjb4-16" value="" style="endArrow=none;html=1;rounded=0;entryX=0;entryY=0.5;entryDx=0;entryDy=0;entryPerimeter=0;" parent="1" source="6bSXe6BSbkcos6ZR_QDM-8" target="LqRWvsVkJMIg8Jv1mjb4-7" edge="1">
          <mxGeometry width="50" height="50" relative="1" as="geometry">
            <mxPoint x="120" y="190" as="sourcePoint" />
            <mxPoint x="171" y="220" as="targetPoint" />
          </mxGeometry>
        </mxCell>
        <mxCell id="LqRWvsVkJMIg8Jv1mjb4-17" value="" style="endArrow=none;html=1;rounded=0;exitX=0;exitY=0;exitDx=130;exitDy=0;exitPerimeter=0;" parent="1" source="6bSXe6BSbkcos6ZR_QDM-8" edge="1">
          <mxGeometry width="50" height="50" relative="1" as="geometry">
            <mxPoint x="130" y="280" as="sourcePoint" />
            <mxPoint x="160" y="310" as="targetPoint" />
          </mxGeometry>
        </mxCell>
        <mxCell id="LqRWvsVkJMIg8Jv1mjb4-18" value="XML" style="html=1;dropTarget=0;whiteSpace=wrap;" parent="1" vertex="1">
          <mxGeometry x="220" y="740" width="180" height="90" as="geometry" />
        </mxCell>
        <mxCell id="LqRWvsVkJMIg8Jv1mjb4-19" value="" style="shape=module;jettyWidth=8;jettyHeight=4;" parent="LqRWvsVkJMIg8Jv1mjb4-18" vertex="1">
          <mxGeometry x="1" width="20" height="20" relative="1" as="geometry">
            <mxPoint x="-27" y="7" as="offset" />
          </mxGeometry>
        </mxCell>
        <mxCell id="LqRWvsVkJMIg8Jv1mjb4-21" value="Realtime&lt;span style=&quot;font-size:14.0pt;line-height:115%;font-family:&amp;quot;Times New Roman&amp;quot;,&amp;quot;serif&amp;quot;;&lt;br/&gt;mso-fareast-font-family:Calibri;mso-fareast-theme-font:minor-latin;mso-ansi-language:&lt;br/&gt;RU;mso-fareast-language:EN-US;mso-bidi-language:AR-SA&quot; lang=&quot;EN-US&quot;&gt; &lt;/span&gt;&lt;span style=&quot;font-size:14.0pt;line-height:115%;font-family:&amp;quot;Times New Roman&amp;quot;,&amp;quot;serif&amp;quot;;&lt;br/&gt;mso-fareast-font-family:Calibri;mso-fareast-theme-font:minor-latin;mso-ansi-language:&lt;br/&gt;EN-US;mso-fareast-language:EN-US;mso-bidi-language:AR-SA&quot; lang=&quot;EN-US&quot;&gt;Database&lt;/span&gt;&lt;span style=&quot;font-size:14.0pt;line-height:115%;font-family:&amp;quot;Times New Roman&amp;quot;,&amp;quot;serif&amp;quot;;&lt;br/&gt;mso-fareast-font-family:Calibri;mso-fareast-theme-font:minor-latin;mso-ansi-language:&lt;br/&gt;RU;mso-fareast-language:EN-US;mso-bidi-language:AR-SA&quot; lang=&quot;EN-US&quot;&gt;&lt;/span&gt;" style="html=1;dropTarget=0;whiteSpace=wrap;" parent="1" vertex="1">
          <mxGeometry x="570" y="285" width="180" height="90" as="geometry" />
        </mxCell>
        <mxCell id="LqRWvsVkJMIg8Jv1mjb4-22" value="" style="shape=module;jettyWidth=8;jettyHeight=4;" parent="LqRWvsVkJMIg8Jv1mjb4-21" vertex="1">
          <mxGeometry x="1" width="20" height="20" relative="1" as="geometry">
            <mxPoint x="-27" y="7" as="offset" />
          </mxGeometry>
        </mxCell>
        <mxCell id="LqRWvsVkJMIg8Jv1mjb4-26" value="Формирование запросов у поставщиков" style="html=1;dropTarget=0;whiteSpace=wrap;" parent="1" vertex="1">
          <mxGeometry x="-150" y="880" width="180" height="90" as="geometry" />
        </mxCell>
        <mxCell id="LqRWvsVkJMIg8Jv1mjb4-27" value="" style="shape=module;jettyWidth=8;jettyHeight=4;" parent="LqRWvsVkJMIg8Jv1mjb4-26" vertex="1">
          <mxGeometry x="1" width="20" height="20" relative="1" as="geometry">
            <mxPoint x="-27" y="7" as="offset" />
          </mxGeometry>
        </mxCell>
        <mxCell id="LqRWvsVkJMIg8Jv1mjb4-28" value="ContentProvider API" style="shape=note;size=20;whiteSpace=wrap;html=1;" parent="1" vertex="1">
          <mxGeometry x="-420" y="880" width="100" height="100" as="geometry" />
        </mxCell>
        <mxCell id="LqRWvsVkJMIg8Jv1mjb4-29" value="" style="endArrow=none;dashed=1;html=1;rounded=0;entryX=0;entryY=0.5;entryDx=0;entryDy=0;" parent="1" source="LqRWvsVkJMIg8Jv1mjb4-28" target="LqRWvsVkJMIg8Jv1mjb4-26" edge="1">
          <mxGeometry width="50" height="50" relative="1" as="geometry">
            <mxPoint x="-260" y="1020" as="sourcePoint" />
            <mxPoint x="-131" y="1015" as="targetPoint" />
          </mxGeometry>
        </mxCell>
        <mxCell id="LqRWvsVkJMIg8Jv1mjb4-30" value="Авторизация пользователей" style="shape=note;size=20;whiteSpace=wrap;html=1;" parent="1" vertex="1">
          <mxGeometry x="-320" y="110" width="100" height="100" as="geometry" />
        </mxCell>
        <mxCell id="LqRWvsVkJMIg8Jv1mjb4-31" value="" style="endArrow=none;html=1;rounded=0;exitX=0;exitY=0;exitDx=100;exitDy=60;exitPerimeter=0;" parent="1" source="LqRWvsVkJMIg8Jv1mjb4-30" target="6bSXe6BSbkcos6ZR_QDM-8" edge="1">
          <mxGeometry width="50" height="50" relative="1" as="geometry">
            <mxPoint x="-10" y="190" as="sourcePoint" />
            <mxPoint x="40" y="140" as="targetPoint" />
          </mxGeometry>
        </mxCell>
      </root>
    </mxGraphModel>
  </diagram>
</mxfile>
